<svg width="1920" height="415" viewBox="0 0 1920 415" fill="none" xmlns="http://www.w3.org/2000/svg">
<mask id="path-1-outside-1_1_17" maskUnits="userSpaceOnUse" x="-1" y="0" width="1923" height="415" fill="black">
<rect fill="white" x="-1" width="1923" height="415"/>
<path fill-rule="evenodd" clip-rule="evenodd" d="M0 406.046V7.57152H129.618C254.886 7.57152 341.794 87.0274 341.794 207.107C341.794 327.187 254.886 406.046 129.618 406.046H0ZM1921 7.57152V130.841L1848.2 242.952V406.046H1763.09V242.952L1609.06 7.57152H1706.15L1805.65 167.678L1903.94 7.57152H1921ZM651.529 413.215C772.601 413.215 860.708 327.187 860.708 207.107C860.708 87.0274 772.601 1 651.529 1C531.057 1 442.95 87.0274 442.95 207.107C442.95 327.187 531.057 413.215 651.529 413.215ZM651.529 337.941C577.808 337.941 530.458 281.186 530.458 207.107C530.458 132.431 577.808 76.274 651.529 76.274C725.251 76.274 773.201 132.431 773.201 207.107C773.201 281.186 725.251 337.941 651.529 337.941ZM129.618 331.369H57.0952V82.2481H129.618C211.731 82.2481 254.886 136.613 254.886 207.107C254.886 274.615 208.735 331.369 129.618 331.369ZM1234.5 331.369V406.046H980.37V7.57152H1065.48V331.369H1234.5ZM1608.17 406.046V331.369H1439.15V7.57152H1354.04V406.046H1608.17Z"/>
</mask>
<path fill-rule="evenodd" clip-rule="evenodd" d="M0 406.046V7.57152H129.618C254.886 7.57152 341.794 87.0274 341.794 207.107C341.794 327.187 254.886 406.046 129.618 406.046H0ZM1921 7.57152V130.841L1848.2 242.952V406.046H1763.09V242.952L1609.06 7.57152H1706.15L1805.65 167.678L1903.94 7.57152H1921ZM651.529 413.215C772.601 413.215 860.708 327.187 860.708 207.107C860.708 87.0274 772.601 1 651.529 1C531.057 1 442.95 87.0274 442.95 207.107C442.95 327.187 531.057 413.215 651.529 413.215ZM651.529 337.941C577.808 337.941 530.458 281.186 530.458 207.107C530.458 132.431 577.808 76.274 651.529 76.274C725.251 76.274 773.201 132.431 773.201 207.107C773.201 281.186 725.251 337.941 651.529 337.941ZM129.618 331.369H57.0952V82.2481H129.618C211.731 82.2481 254.886 136.613 254.886 207.107C254.886 274.615 208.735 331.369 129.618 331.369ZM1234.5 331.369V406.046H980.37V7.57152H1065.48V331.369H1234.5ZM1608.17 406.046V331.369H1439.15V7.57152H1354.04V406.046H1608.17Z" fill="#33445E" fill-opacity="0.04"/>
<path d="M0 406.046H-1V407.046H0V406.046ZM0 7.57152V6.57152H-1V7.57152H0ZM1921 7.57152H1922V6.57152H1921V7.57152ZM1921 130.841L1921.84 131.386L1922 131.137V130.841H1921ZM1848.2 242.952L1847.36 242.407L1847.2 242.656V242.952H1848.2ZM1848.2 406.046V407.046H1849.2V406.046H1848.2ZM1763.09 406.046H1762.09V407.046H1763.09V406.046ZM1763.09 242.952H1764.09V242.654L1763.93 242.404L1763.09 242.952ZM1609.06 7.57152V6.57152H1607.21L1608.22 8.11911L1609.06 7.57152ZM1706.15 7.57152L1707 7.04371L1706.71 6.57152H1706.15V7.57152ZM1805.65 167.678L1804.8 168.206L1805.65 169.581L1806.5 168.201L1805.65 167.678ZM1903.94 7.57152V6.57152H1903.39L1903.09 7.04832L1903.94 7.57152ZM57.0952 331.369H56.0952V332.369H57.0952V331.369ZM57.0952 82.2481V81.2481H56.0952V82.2481H57.0952ZM1234.5 406.046V407.046H1235.5V406.046H1234.5ZM1234.5 331.369H1235.5V330.369H1234.5V331.369ZM980.37 406.046H979.37V407.046H980.37V406.046ZM980.37 7.57152V6.57152H979.37V7.57152H980.37ZM1065.48 7.57152H1066.48V6.57152H1065.48V7.57152ZM1065.48 331.369H1064.48V332.369H1065.48V331.369ZM1608.17 331.369H1609.17V330.369H1608.17V331.369ZM1608.17 406.046V407.046H1609.17V406.046H1608.17ZM1439.15 331.369H1438.15V332.369H1439.15V331.369ZM1439.15 7.57152H1440.15V6.57152H1439.15V7.57152ZM1354.04 7.57152V6.57152H1353.04V7.57152H1354.04ZM1354.04 406.046H1353.04V407.046H1354.04V406.046ZM1 406.046V7.57152H-1V406.046H1ZM0 8.57152H129.618V6.57152H0V8.57152ZM129.618 8.57152C192.04 8.57152 244.827 28.3659 281.999 63.0407C319.165 97.7095 340.794 147.32 340.794 207.107H342.794C342.794 146.815 320.969 96.6573 283.363 61.5782C245.764 26.5051 192.464 6.57152 129.618 6.57152V8.57152ZM340.794 207.107C340.794 266.894 319.165 316.355 282.001 350.874C244.829 385.399 192.042 405.046 129.618 405.046V407.046C192.462 407.046 245.762 387.263 283.362 352.339C320.968 317.409 342.794 267.4 342.794 207.107H340.794ZM129.618 405.046H0V407.046H129.618V405.046ZM1920 7.57152V130.841H1922V7.57152H1920ZM1849.04 243.497L1921.84 131.386L1920.16 130.296L1847.36 242.407L1849.04 243.497ZM1849.2 406.046V242.952H1847.2V406.046H1849.2ZM1763.09 407.046H1848.2V405.046H1763.09V407.046ZM1762.09 242.952V406.046H1764.09V242.952H1762.09ZM1608.22 8.11911L1762.26 243.5L1763.93 242.404L1609.89 7.02394L1608.22 8.11911ZM1706.15 6.57152H1609.06V8.57152H1706.15V6.57152ZM1806.5 167.15L1707 7.04371L1705.3 8.09934L1804.8 168.206L1806.5 167.15ZM1903.09 7.04832L1804.8 167.155L1806.5 168.201L1904.8 8.09473L1903.09 7.04832ZM1921 6.57152H1903.94V8.57152H1921V6.57152ZM859.708 207.107C859.708 326.619 772.065 412.215 651.529 412.215V414.215C773.137 414.215 861.708 327.756 861.708 207.107H859.708ZM651.529 2C772.065 2 859.708 87.5961 859.708 207.107H861.708C861.708 86.4587 773.137 0 651.529 0V2ZM443.95 207.107C443.95 87.5942 531.595 2 651.529 2V0C530.519 0 441.95 86.4606 441.95 207.107H443.95ZM651.529 412.215C531.595 412.215 443.95 326.62 443.95 207.107H441.95C441.95 327.754 530.519 414.215 651.529 414.215V412.215ZM529.458 207.107C529.458 244.357 541.364 277.315 562.604 300.972C583.853 324.639 614.395 338.941 651.529 338.941V336.941C614.942 336.941 584.948 322.865 564.092 299.636C543.227 276.396 531.458 243.936 531.458 207.107H529.458ZM651.529 75.274C614.398 75.274 583.856 89.4237 562.605 113.018C541.363 136.602 529.458 169.56 529.458 207.107H531.458C531.458 169.978 543.227 137.52 564.091 114.356C584.945 91.2026 614.939 77.274 651.529 77.274V75.274ZM774.201 207.107C774.201 169.557 762.144 136.598 740.751 113.015C719.351 89.4231 688.66 75.274 651.529 75.274V77.274C688.121 77.274 718.265 91.2032 739.27 114.359C760.283 137.524 772.201 169.981 772.201 207.107H774.201ZM651.529 338.941C688.663 338.941 719.354 324.64 740.752 300.974C762.143 277.318 774.201 244.361 774.201 207.107H772.201C772.201 243.933 760.284 276.392 739.269 299.633C718.263 322.864 688.118 336.941 651.529 336.941V338.941ZM57.0952 332.369H129.618V330.369H57.0952V332.369ZM56.0952 82.2481V331.369H58.0952V82.2481H56.0952ZM129.618 81.2481H57.0952V83.2481H129.618V81.2481ZM255.886 207.107C255.886 171.66 245.034 140.182 223.773 117.557C202.503 94.9227 170.906 81.2481 129.618 81.2481V83.2481C170.444 83.2481 201.481 96.7557 222.316 118.927C243.16 141.109 253.886 172.06 253.886 207.107H255.886ZM129.618 332.369C169.429 332.369 201.016 318.083 222.647 295.241C244.269 272.408 255.886 241.088 255.886 207.107H253.886C253.886 240.635 242.427 271.445 221.195 293.866C199.971 316.278 168.924 330.369 129.618 330.369V332.369ZM1235.5 406.046V331.369H1233.5V406.046H1235.5ZM980.37 407.046H1234.5V405.046H980.37V407.046ZM979.37 7.57152V406.046H981.37V7.57152H979.37ZM1065.48 6.57152H980.37V8.57152H1065.48V6.57152ZM1066.48 331.369V7.57152H1064.48V331.369H1066.48ZM1234.5 330.369H1065.48V332.369H1234.5V330.369ZM1607.17 331.369V406.046H1609.17V331.369H1607.17ZM1439.15 332.369H1608.17V330.369H1439.15V332.369ZM1438.15 7.57152V331.369H1440.15V7.57152H1438.15ZM1354.04 8.57152H1439.15V6.57152H1354.04V8.57152ZM1355.04 406.046V7.57152H1353.04V406.046H1355.04ZM1608.17 405.046H1354.04V407.046H1608.17V405.046Z" fill="black" mask="url(#path-1-outside-1_1_17)"/>
</svg>
